<svg width="39" height="42" viewBox="0 0 39 42" fill="none" xmlns="http://www.w3.org/2000/svg">
<path d="M19.5037 41.3492L13.4048 33.7301H25.5953L19.5037 41.3492Z" fill="#F7B328"/>
<g filter="url(#filter0_d_82_349)">
<path d="M19.5 35.0001C28.34 35.0001 35.5 27.8401 35.5 19C35.5 10.16 28.34 3 19.5 3C10.66 3 3.5 10.16 3.5 19C3.5 27.8401 10.66 35.0001 19.5 35.0001Z" fill="#F7B328"/>
</g>
<path d="M26.7584 25.5C25.3998 25.5 24.257 24.4334 24.257 22.9604C24.257 21.5891 25.3871 20.4717 26.7965 20.4717C28.1806 20.4717 29.3234 21.6018 29.3234 22.9985C29.298 24.3699 28.1679 25.5 26.7584 25.5ZM28.0663 22.9858C28.0663 22.2748 27.4695 21.678 26.7584 21.678C26.0473 21.678 25.4505 22.2748 25.4505 22.9985C25.4505 23.7096 26.0473 24.3064 26.7584 24.3064C27.4822 24.281 28.0663 23.7096 28.0663 22.9858Z" fill="white"/>
<path d="M21.7685 13.7546C22.086 13.7546 22.3272 13.9959 22.3272 14.3133C22.3272 14.6181 22.0733 14.872 21.7685 14.872C21.4638 14.872 21.2098 14.6181 21.2098 14.3133C21.2225 13.9959 21.4638 13.7546 21.7685 13.7546Z" fill="white"/>
<path d="M28.0663 20.294C28.2822 20.3828 28.5107 20.3828 28.7266 20.3574C28.8663 20.3447 28.9171 20.2178 28.8663 20.1035C28.8155 20.04 28.7774 19.9511 28.7139 19.9003C28.5615 19.7606 28.4092 19.6464 28.2441 19.5067C28.206 19.4686 28.1806 19.4432 28.1425 19.4178C27.4314 18.9226 26.6315 18.7575 25.7934 18.8083C25.7426 18.821 25.6791 18.821 25.6283 18.821C25.6157 18.8083 25.6157 18.7829 25.6157 18.7829C25.4633 17.8179 25.1204 16.9417 24.6506 16.091C24.4348 15.6847 24.1935 15.291 23.9776 14.872C23.8761 14.7069 23.9268 14.6181 24.13 14.6054C24.4855 14.5673 24.7014 14.3514 24.7014 13.9959C24.7014 13.8562 24.7014 13.7292 24.7014 13.5768C24.7014 13.361 24.7141 13.1197 24.6887 12.9039C24.6506 12.5991 24.4982 12.4594 24.1808 12.5102C24.0665 12.5229 23.9395 12.561 23.8253 12.5737C23.3047 12.688 22.8348 12.7896 22.3396 12.8912C22.1365 12.9419 21.9714 13.0435 21.8444 13.2467C21.8952 13.2594 21.9333 13.2848 21.9587 13.2848C22.7079 13.4499 23.0126 14.4022 22.5047 14.9609C22.4158 15.0498 22.4158 15.1133 22.4539 15.2148C22.6952 15.7735 22.8475 16.3449 22.9745 16.9417C23.1142 17.602 23.165 18.3004 23.038 18.9607C22.8729 19.8241 22.2888 20.332 21.4127 20.3447C20.4984 20.3574 19.5969 20.3574 18.6827 20.3447C18.5684 20.3447 18.4414 20.3067 18.3398 20.2813C17.4891 19.9765 17.0574 18.948 17.4256 18.1353C17.5399 17.8814 17.5907 17.6401 17.578 17.3735C17.5653 17.2211 17.5145 17.1195 17.3621 17.1068C17.2097 17.0941 17.0954 17.0687 16.9431 17.0687C16.1685 17.056 15.3812 17.0687 14.6194 17.0687C13.9464 17.0687 13.2861 17.0687 12.6004 17.0687C12.1433 17.0687 11.8894 17.3227 11.8894 17.7798C11.8894 17.8306 11.8894 17.8941 11.8894 17.9449C11.8894 18.0338 11.8513 18.0845 11.8005 18.1099C11.3434 18.3766 10.9878 18.7575 10.6704 19.1765C10.4545 19.4432 10.3275 19.7226 10.3275 19.7226C9.9339 20.4336 9.73074 21.1955 9.67995 22.0082C9.66725 22.224 9.69264 22.4526 9.69264 22.6684C9.9339 22.6684 10.1498 22.6684 10.3656 22.6684L17.0066 22.6303C19.2414 22.6303 21.4889 22.6303 23.7491 22.6303C23.7618 22.5923 23.7618 22.5796 23.7618 22.5669C23.8253 22.0716 24.0157 21.6145 24.3205 21.2336C25.0696 20.2813 26.0347 19.8749 27.2283 20.0527C27.2537 20.04 27.5203 20.0654 28.0663 20.294Z" fill="white"/>
<path d="M13.5657 23.9637C12.9689 23.9764 12.461 23.6081 12.2451 23.1002H10.95C11.2039 24.3065 12.2705 25.2207 13.553 25.2207C14.8101 25.2588 15.9021 24.2938 16.156 23.1002H14.8355C14.6577 23.5954 14.2006 23.951 13.5657 23.9637Z" fill="white"/>
<path d="M14.2006 14.7831C14.2006 14.491 13.9466 14.2371 13.6546 14.2371H11.3817C11.0896 14.2371 10.8357 14.491 10.8357 14.7831V15.1894H14.2006V14.7831Z" fill="white"/>
<path d="M10.8483 15.9893C10.8483 16.2814 11.1022 16.5353 11.3943 16.5353H13.6672C13.9592 16.5353 14.2132 16.2814 14.2132 15.9893V15.583H10.8483V15.9893Z" fill="white"/>
<defs>
<filter id="filter0_d_82_349" x="0.792308" y="0.292308" width="37.4154" height="37.4155" filterUnits="userSpaceOnUse" color-interpolation-filters="sRGB">
<feFlood flood-opacity="0" result="BackgroundImageFix"/>
<feColorMatrix in="SourceAlpha" type="matrix" values="0 0 0 0 0 0 0 0 0 0 0 0 0 0 0 0 0 0 127 0" result="hardAlpha"/>
<feOffset/>
<feGaussianBlur stdDeviation="1.35385"/>
<feComposite in2="hardAlpha" operator="out"/>
<feColorMatrix type="matrix" values="0 0 0 0 0 0 0 0 0 0 0 0 0 0 0 0 0 0 0.25 0"/>
<feBlend mode="normal" in2="BackgroundImageFix" result="effect1_dropShadow_82_349"/>
<feBlend mode="normal" in="SourceGraphic" in2="effect1_dropShadow_82_349" result="shape"/>
</filter>
</defs>
</svg>
