<svg width="37" height="41" viewBox="0 0 37 41" fill="none" xmlns="http://www.w3.org/2000/svg">
<path d="M18.5037 40.3491L12.4048 32.7301H24.5952L18.5037 40.3491Z" fill="#29323C"/>
<g filter="url(#filter0_d_67_947)">
<path d="M18.5 34C27.34 34 34.5 26.84 34.5 18C34.5 9.16001 27.34 2 18.5 2C9.65999 2 2.5 9.16001 2.5 18C2.5 26.84 9.65999 34 18.5 34Z" fill="#29323C"/>
</g>
<g clip-path="url(#clip0_67_947)">
<path d="M25.7584 24.4999C24.3998 24.4999 23.257 23.4333 23.257 21.9604C23.257 20.589 24.3871 19.4716 25.7965 19.4716C27.1806 19.4716 28.3234 20.6017 28.3234 21.9985C28.298 23.3698 27.1679 24.4999 25.7584 24.4999ZM27.0663 21.9858C27.0663 21.2747 26.4695 20.6779 25.7584 20.6779C25.0473 20.6779 24.4505 21.2747 24.4505 21.9985C24.4505 22.7096 25.0473 23.3064 25.7584 23.3064C26.4822 23.281 27.0663 22.7096 27.0663 21.9858Z" fill="white"/>
<path d="M20.7685 12.7547C21.086 12.7547 21.3272 12.9959 21.3272 13.3134C21.3272 13.6181 21.0733 13.8721 20.7685 13.8721C20.4638 13.8721 20.2098 13.6181 20.2098 13.3134C20.2225 12.9959 20.4638 12.7547 20.7685 12.7547Z" fill="white"/>
<path d="M27.0663 19.2939C27.2822 19.3828 27.5107 19.3828 27.7266 19.3574C27.8663 19.3447 27.9171 19.2178 27.8663 19.1035C27.8155 19.04 27.7774 18.9511 27.7139 18.9003C27.5615 18.7606 27.4092 18.6464 27.2441 18.5067C27.206 18.4686 27.1806 18.4432 27.1425 18.4178C26.4314 17.9226 25.6315 17.7575 24.7934 17.8083C24.7426 17.821 24.6791 17.821 24.6283 17.821C24.6157 17.8083 24.6157 17.7829 24.6157 17.7829C24.4633 16.8179 24.1204 15.9417 23.6506 15.091C23.4348 14.6847 23.1935 14.291 22.9776 13.872C22.8761 13.7069 22.9268 13.618 23.13 13.6053C23.4855 13.5673 23.7014 13.3514 23.7014 12.9959C23.7014 12.8562 23.7014 12.7292 23.7014 12.5768C23.7014 12.361 23.7141 12.1197 23.6887 11.9038C23.6506 11.5991 23.4982 11.4594 23.1808 11.5102C23.0665 11.5229 22.9395 11.561 22.8253 11.5737C22.3047 11.688 21.8348 11.7896 21.3396 11.8911C21.1365 11.9419 20.9714 12.0435 20.8444 12.2467C20.8952 12.2594 20.9333 12.2848 20.9587 12.2848C21.7079 12.4498 22.0126 13.4022 21.5047 13.9609C21.4158 14.0498 21.4158 14.1133 21.4539 14.2148C21.6952 14.7735 21.8475 15.3449 21.9745 15.9417C22.1142 16.602 22.165 17.3004 22.038 17.9607C21.8729 18.8241 21.2888 19.332 20.4127 19.3447C19.4984 19.3574 18.5969 19.3574 17.6827 19.3447C17.5684 19.3447 17.4414 19.3066 17.3398 19.2812C16.4891 18.9765 16.0574 17.948 16.4256 17.1353C16.5399 16.8814 16.5907 16.6401 16.578 16.3735C16.5653 16.2211 16.5145 16.1195 16.3621 16.1068C16.2097 16.0941 16.0954 16.0687 15.9431 16.0687C15.1685 16.056 14.3812 16.0687 13.6194 16.0687C12.9464 16.0687 12.2861 16.0687 11.6004 16.0687C11.1433 16.0687 10.8894 16.3227 10.8894 16.7798C10.8894 16.8306 10.8894 16.8941 10.8894 16.9449C10.8894 17.0337 10.8513 17.0845 10.8005 17.1099C10.3434 17.3766 9.98782 17.7575 9.67037 18.1765C9.45451 18.4432 9.32753 18.7225 9.32753 18.7225C8.9339 19.4336 8.73074 20.1955 8.67995 21.0081C8.66725 21.224 8.69264 21.4526 8.69264 21.6684C8.9339 21.6684 9.14976 21.6684 9.36563 21.6684L16.0066 21.6303C18.2414 21.6303 20.4889 21.6303 22.7491 21.6303C22.7618 21.5922 22.7618 21.5795 22.7618 21.5668C22.8253 21.0716 23.0157 20.6145 23.3205 20.2336C24.0696 19.2812 25.0347 18.8749 26.2283 19.0527C26.2537 19.04 26.5203 19.0654 27.0663 19.2939Z" fill="white"/>
<path d="M12.5657 22.9637C11.9689 22.9764 11.461 22.6081 11.2451 22.1002H9.94995C10.2039 23.3065 11.2705 24.2208 12.553 24.2208C13.8101 24.2589 14.9021 23.2938 15.156 22.1002H13.8355C13.6577 22.5955 13.2006 22.951 12.5657 22.9637Z" fill="white"/>
<path d="M13.2006 13.7831C13.2006 13.491 12.9466 13.2371 12.6546 13.2371H10.3817C10.0896 13.2371 9.83569 13.491 9.83569 13.7831V14.1894H13.2006V13.7831Z" fill="white"/>
<path d="M9.84827 14.9894C9.84827 15.2814 10.1022 15.5354 10.3943 15.5354H12.6672C12.9592 15.5354 13.2132 15.2814 13.2132 14.9894V14.583H9.84827V14.9894Z" fill="white"/>
</g>
<defs>
<filter id="filter0_d_67_947" x="0.5" y="0" width="36" height="36" filterUnits="userSpaceOnUse" color-interpolation-filters="sRGB">
<feFlood flood-opacity="0" result="BackgroundImageFix"/>
<feColorMatrix in="SourceAlpha" type="matrix" values="0 0 0 0 0 0 0 0 0 0 0 0 0 0 0 0 0 0 127 0" result="hardAlpha"/>
<feOffset/>
<feGaussianBlur stdDeviation="1"/>
<feComposite in2="hardAlpha" operator="out"/>
<feColorMatrix type="matrix" values="0 0 0 0 0 0 0 0 0 0 0 0 0 0 0 0 0 0 0.25 0"/>
<feBlend mode="normal" in2="BackgroundImageFix" result="effect1_dropShadow_67_947"/>
<feBlend mode="normal" in="SourceGraphic" in2="effect1_dropShadow_67_947" result="shape"/>
</filter>
<clipPath id="clip0_67_947">
<rect width="24" height="14" fill="white" transform="translate(6.5 11)"/>
</clipPath>
</defs>
</svg>
