<svg width="38" height="42" viewBox="0 0 38 42" fill="none" xmlns="http://www.w3.org/2000/svg">
<path d="M19.0037 41.3492L12.9048 33.7301H25.0953L19.0037 41.3492Z" fill="#E1485C"/>
<g filter="url(#filter0_d_67_1020)">
<path d="M19 35.0001C27.84 35.0001 35 27.8401 35 19C35 10.16 27.84 3 19 3C10.16 3 3 10.16 3 19C3 27.8401 10.16 35.0001 19 35.0001Z" fill="#E1485C"/>
</g>
<path d="M26.2584 25.5C24.8998 25.5 23.757 24.4334 23.757 22.9604C23.757 21.5891 24.8871 20.4717 26.2965 20.4717C27.6806 20.4717 28.8234 21.6018 28.8234 22.9985C28.798 24.3699 27.6679 25.5 26.2584 25.5ZM27.5663 22.9858C27.5663 22.2748 26.9695 21.678 26.2584 21.678C25.5473 21.678 24.9505 22.2748 24.9505 22.9985C24.9505 23.7096 25.5473 24.3064 26.2584 24.3064C26.9822 24.281 27.5663 23.7096 27.5663 22.9858Z" fill="white"/>
<path d="M21.2685 13.7546C21.586 13.7546 21.8272 13.9959 21.8272 14.3133C21.8272 14.6181 21.5733 14.872 21.2685 14.872C20.9638 14.872 20.7098 14.6181 20.7098 14.3133C20.7225 13.9959 20.9638 13.7546 21.2685 13.7546Z" fill="white"/>
<path d="M27.5663 20.294C27.7822 20.3828 28.0107 20.3828 28.2266 20.3574C28.3663 20.3447 28.4171 20.2178 28.3663 20.1035C28.3155 20.04 28.2774 19.9511 28.2139 19.9003C28.0615 19.7606 27.9092 19.6464 27.7441 19.5067C27.706 19.4686 27.6806 19.4432 27.6425 19.4178C26.9314 18.9226 26.1315 18.7575 25.2934 18.8083C25.2426 18.821 25.1791 18.821 25.1283 18.821C25.1157 18.8083 25.1157 18.7829 25.1157 18.7829C24.9633 17.8179 24.6204 16.9417 24.1506 16.091C23.9348 15.6847 23.6935 15.291 23.4776 14.872C23.3761 14.7069 23.4268 14.6181 23.63 14.6054C23.9855 14.5673 24.2014 14.3514 24.2014 13.9959C24.2014 13.8562 24.2014 13.7292 24.2014 13.5768C24.2014 13.361 24.2141 13.1197 24.1887 12.9039C24.1506 12.5991 23.9982 12.4594 23.6808 12.5102C23.5665 12.5229 23.4395 12.561 23.3253 12.5737C22.8047 12.688 22.3348 12.7896 21.8396 12.8912C21.6365 12.9419 21.4714 13.0435 21.3444 13.2467C21.3952 13.2594 21.4333 13.2848 21.4587 13.2848C22.2079 13.4499 22.5126 14.4022 22.0047 14.9609C21.9158 15.0498 21.9158 15.1133 21.9539 15.2148C22.1952 15.7735 22.3475 16.3449 22.4745 16.9417C22.6142 17.602 22.665 18.3004 22.538 18.9607C22.3729 19.8241 21.7888 20.332 20.9127 20.3447C19.9984 20.3574 19.0969 20.3574 18.1827 20.3447C18.0684 20.3447 17.9414 20.3067 17.8398 20.2813C16.9891 19.9765 16.5574 18.948 16.9256 18.1353C17.0399 17.8814 17.0907 17.6401 17.078 17.3735C17.0653 17.2211 17.0145 17.1195 16.8621 17.1068C16.7097 17.0941 16.5954 17.0687 16.4431 17.0687C15.6685 17.056 14.8812 17.0687 14.1194 17.0687C13.4464 17.0687 12.7861 17.0687 12.1004 17.0687C11.6433 17.0687 11.3894 17.3227 11.3894 17.7798C11.3894 17.8306 11.3894 17.8941 11.3894 17.9449C11.3894 18.0338 11.3513 18.0845 11.3005 18.1099C10.8434 18.3766 10.4878 18.7575 10.1704 19.1765C9.95451 19.4432 9.82753 19.7226 9.82753 19.7226C9.4339 20.4336 9.23074 21.1955 9.17995 22.0082C9.16725 22.224 9.19264 22.4526 9.19264 22.6684C9.4339 22.6684 9.64976 22.6684 9.86563 22.6684L16.5066 22.6303C18.7414 22.6303 20.9889 22.6303 23.2491 22.6303C23.2618 22.5923 23.2618 22.5796 23.2618 22.5669C23.3253 22.0716 23.5157 21.6145 23.8205 21.2336C24.5696 20.2813 25.5347 19.8749 26.7283 20.0527C26.7537 20.04 27.0203 20.0654 27.5663 20.294Z" fill="white"/>
<path d="M13.0657 23.9637C12.4689 23.9764 11.961 23.6081 11.7451 23.1002H10.45C10.7039 24.3065 11.7705 25.2207 13.053 25.2207C14.3101 25.2588 15.4021 24.2938 15.656 23.1002H14.3355C14.1577 23.5954 13.7006 23.951 13.0657 23.9637Z" fill="white"/>
<path d="M13.7006 14.7831C13.7006 14.491 13.4466 14.2371 13.1546 14.2371H10.8817C10.5896 14.2371 10.3357 14.491 10.3357 14.7831V15.1894H13.7006V14.7831Z" fill="white"/>
<path d="M10.3483 15.9893C10.3483 16.2814 10.6022 16.5353 10.8943 16.5353H13.1672C13.4592 16.5353 13.7132 16.2814 13.7132 15.9893V15.583H10.3483V15.9893Z" fill="white"/>
<defs>
<filter id="filter0_d_67_1020" x="0.292308" y="0.292308" width="37.4154" height="37.4155" filterUnits="userSpaceOnUse" color-interpolation-filters="sRGB">
<feFlood flood-opacity="0" result="BackgroundImageFix"/>
<feColorMatrix in="SourceAlpha" type="matrix" values="0 0 0 0 0 0 0 0 0 0 0 0 0 0 0 0 0 0 127 0" result="hardAlpha"/>
<feOffset/>
<feGaussianBlur stdDeviation="1.35385"/>
<feComposite in2="hardAlpha" operator="out"/>
<feColorMatrix type="matrix" values="0 0 0 0 0 0 0 0 0 0 0 0 0 0 0 0 0 0 0.25 0"/>
<feBlend mode="normal" in2="BackgroundImageFix" result="effect1_dropShadow_67_1020"/>
<feBlend mode="normal" in="SourceGraphic" in2="effect1_dropShadow_67_1020" result="shape"/>
</filter>
</defs>
</svg>
