<svg width="72" height="53" viewBox="0 0 72 53" fill="none" xmlns="http://www.w3.org/2000/svg">
<ellipse opacity="0.5" cx="36" cy="49.7863" rx="36" ry="3.01381" fill="#D9D9D9"/>
<path d="M15.8052 24.7889L13.5174 24.4257L13.2382 24.7889C13.2382 24.7889 13.1201 24.8997 13.1845 24.8997C13.2488 24.8997 15.4078 25.2951 15.4078 25.2951L15.8052 24.7889Z" fill="#A5A5A5"/>
<path d="M5.63435 26.0439C5.63435 26.0439 5.73641 26.0446 5.91444 26.0591C6.44869 26.1024 7.66703 26.2695 8.86729 26.9133C8.86729 26.9133 10.8222 27.9666 10.3335 28.5074L8.66332 29.9617C8.66332 29.9617 7.81478 30.556 5.63435 30.4789C5.63435 30.4789 5.35511 30.1487 5.29062 29.3564C5.22614 28.5641 5.29062 27.3645 5.29062 27.3645L5.53777 26.099L5.63435 26.0439Z" fill="#74BA91"/>
<path d="M3.42053 39.4778C3.36768 39.6647 3.17703 39.7721 2.99465 39.7177C2.81227 39.6635 2.70755 39.4682 2.7604 39.2815L4.49715 33.1516C4.55014 32.9648 4.74079 32.8573 4.92303 32.9115C5.10541 32.9657 5.21012 33.161 5.15727 33.3479L3.42053 39.4778Z" fill="#74BA91"/>
<path d="M52.5151 28.0685L51.57 28.0134C51.57 28.0134 50.7393 27.0841 51.033 25.6364L51.0974 25.5593H51.2505L51.3069 25.6129V25.6955L51.2585 25.7449L51.2383 25.7821L51.2424 25.9431C51.2424 25.9431 51.3753 26.7232 51.6371 26.8676C51.6371 26.8676 51.8627 26.9006 52.2211 26.8923L52.6118 28.0685" fill="#74BA91"/>
<path d="M49.5288 12.3664L50.9858 6.29017L51.1055 5.87891L50.9274 5.8137L49.1243 5.45478C49.1243 5.45478 48.8778 3.26008 48.3731 2.74587L48.2116 2.7227L47.9318 7.06077L47.9477 7.19276C47.9477 7.19276 48.7914 6.69728 48.9635 6.06723L49.0703 5.6504L50.7634 6.04807L50.734 6.16147L49.3288 12.2454L49.5288 12.3664Z" fill="#D9D9D9"/>
<path d="M58.5417 28.6293L59.3427 29.862L56.6513 30.3626L55.8044 29.0915L58.5417 28.6293Z" fill="#202021"/>
<path d="M35.2224 42.5986C34.7713 42.7967 31.1531 45.1697 30.3797 45.3678C29.6063 45.5658 22.1603 46.3031 22.1603 46.3031L22.0825 46.5617L22.0341 46.5893H21.0352V46.3251V45.6648V45.4446L21.4863 45.4336L22.0582 45.428L22.1038 45.4583L22.1521 45.6206L28.0595 44.9053C28.0595 44.9053 29.4129 44.4101 29.5739 44.245C29.735 44.0799 24.0638 45.1034 24.0638 45.1034C24.0638 45.1034 23.4839 45.1803 23.3549 44.7456C23.2261 44.311 23.0971 42.7262 23.0971 42.7262L22.8071 39.1936L29.2194 38.2361L36.3406 41.1414" fill="#202021"/>
<path d="M61.9067 28.9697C61.9067 28.9697 62.0063 28.7284 62.5862 28.5964C63.1662 28.4643 65.3896 28.0846 67.3068 28.5964C67.3068 28.5964 67.5968 28.7321 67.3874 28.9697C67.1779 29.2072 66.7107 29.6034 66.7107 29.6034C66.7107 29.6034 66.6946 29.785 66.8879 29.9831C67.0812 30.1811 67.5968 30.6599 67.5968 30.6599C67.5968 30.6599 67.744 30.8385 67.7256 30.9735C67.7074 31.1084 67.5807 31.1385 67.5807 31.1385L61.9067 28.9697Z" fill="#D9D9D9"/>
<path d="M51.1525 16.9645L51.3674 17.4707L50.2074 18.241L50.014 17.4487L51.1525 16.9645Z" fill="#202021"/>
<path d="M16.0737 25.1737L15.2747 25.8089L15.1715 25.891L37.0827 26.1862C37.0827 26.1862 36.997 25.724 37.5555 25.724C38.1139 25.724 36.5673 24.0622 36.3954 23.9577C36.2236 23.8532 16.0737 25.1737 16.0737 25.1737Z" fill="#202021"/>
<path d="M63.605 33.8515C59.2967 33.8515 55.8044 37.4294 55.8044 41.843C55.8044 46.2575 59.2967 49.8353 63.605 49.8353C67.9124 49.8353 71.4049 46.2575 71.4049 41.843C71.4049 37.4294 67.9124 33.8515 63.605 33.8515ZM63.605 46.4374C61.1323 46.4374 59.1211 44.3767 59.1211 41.843C59.1211 39.3104 61.1323 37.2495 63.605 37.2495C66.0771 37.2495 68.0883 39.3104 68.0883 41.843C68.0881 44.3767 66.0771 46.4374 63.605 46.4374Z" fill="#202021"/>
<path d="M63.6162 36.9842C60.9738 36.9842 58.8317 39.163 58.8317 41.8499C58.8317 44.537 60.9738 46.7159 63.6162 46.7159C66.2588 46.7159 68.4007 44.5372 68.4007 41.8499C68.4007 39.1632 66.2588 36.9842 63.6162 36.9842ZM68.0631 41.8499C68.0631 42.0601 68.0485 42.2659 68.0212 42.4683L65.7597 41.536L65.5213 41.2073V41.0498V40.7927L66.7786 38.6741C67.5728 39.4918 68.0631 40.6135 68.0631 41.8499ZM65.6619 37.8362L64.0681 39.7826L63.6872 39.9137L63.5403 39.8658L63.2999 39.7876L61.6056 37.8177C62.2101 37.505 62.8932 37.3274 63.6162 37.3274C64.3536 37.3272 65.049 37.5114 65.6619 37.8362ZM60.4289 38.7003L61.78 40.7011L61.8013 41.1095L61.716 41.2402L61.5766 41.4548L59.2299 42.5897C59.1904 42.3485 59.169 42.102 59.169 41.8499C59.1687 40.6267 59.6505 39.5153 60.4289 38.7003ZM59.6456 43.8831L62.1025 43.3801L62.4797 43.5191L62.5651 43.6506L62.7043 43.8651L62.8024 46.2957C61.4203 46.0346 60.2611 45.1219 59.6456 43.8831ZM63.1673 46.3497L63.2544 43.6488L62.0073 42.7925L61.8786 42.7766L59.4905 43.5358C59.4154 43.3443 59.3515 43.1467 59.3013 42.9447L61.9871 41.8848L62.2731 40.3822L62.2382 40.2553L60.7096 38.4316C60.8924 38.2701 61.0879 38.1234 61.2947 37.9947L63.004 40.3064L64.5041 40.1786L64.6136 40.1093L65.9871 38.0259C66.1713 38.1449 66.346 38.2762 66.5104 38.42L64.9456 40.665L65.5213 42.0782L65.6196 42.1642L67.9527 42.8503C67.9015 43.0802 67.8332 43.303 67.749 43.5181L64.9643 42.8235L63.8834 43.8887L63.8413 44.0131L64.0604 46.3505C63.9146 46.3652 63.7666 46.3731 63.6162 46.3731C63.4648 46.3731 63.3158 46.3652 63.1673 46.3497ZM64.4466 46.293L64.4674 43.9144L64.6803 43.5684L64.824 43.5106L65.0588 43.4163L67.6036 43.851C66.9939 45.101 65.8335 46.0253 64.4466 46.293Z" fill="#D9D9D9"/>
<path d="M66.5673 41.8425C66.5673 43.4763 65.275 44.8002 63.6814 44.8002C62.0872 44.8002 60.7952 43.4763 60.7952 41.8425C60.7952 40.2097 62.0872 38.8857 63.6814 38.8857C65.2752 38.8856 66.5673 40.2097 66.5673 41.8425Z" fill="#D9D9D9"/>
<path d="M63.4231 42.644L61.5811 39.8162L61.9886 39.4419L63.4231 42.644Z" fill="#A5A5A5"/>
<path d="M12.1316 34.287C7.82333 34.287 4.33105 37.8649 4.33105 42.2785C4.33105 46.6931 7.82333 50.2709 12.1316 50.2709C16.4389 50.2709 19.9315 46.6931 19.9315 42.2785C19.9315 37.8649 16.4389 34.287 12.1316 34.287ZM12.1316 46.873C9.6589 46.873 7.64768 44.8123 7.64768 42.2785C7.64768 39.7459 9.6589 37.685 12.1316 37.685C14.6036 37.685 16.6148 39.7459 16.6148 42.2785C16.6148 44.8123 14.6036 46.873 12.1316 46.873Z" fill="#202021"/>
<path d="M12.1418 37.419C9.49946 37.419 7.3573 39.5979 7.3573 42.2847C7.3573 44.9719 9.49946 47.1508 12.1418 47.1508C14.7844 47.1508 16.9263 44.9721 16.9263 42.2847C16.9261 39.5979 14.7843 37.419 12.1418 37.419ZM16.5887 42.2847C16.5887 42.495 16.5741 42.7007 16.5468 42.9032L14.2854 41.9709L14.0469 41.6421V41.4847V41.2276L15.3042 39.1089C16.0984 39.9266 16.5887 41.0483 16.5887 42.2847ZM14.1874 38.2708L12.5936 40.2173L12.2127 40.3484L12.0658 40.3005L11.8254 40.2223L10.1311 38.2524C10.7357 37.9397 11.4187 37.7621 12.1417 37.7621C12.879 37.7621 13.5745 37.9461 14.1874 38.2708ZM8.95442 39.135L10.3055 41.1358L10.3268 41.5442L10.2415 41.6749L10.1021 41.8895L7.75542 43.0245C7.71589 42.7834 7.69444 42.5367 7.69444 42.2846C7.6943 41.0614 8.17598 39.9502 8.95442 39.135ZM8.17107 44.318L10.6279 43.8149L11.0052 43.9539L11.0906 44.0855L11.2298 44.3L11.3279 46.7306C9.94581 46.4695 8.78662 45.5566 8.17107 44.318ZM11.6929 46.7845L11.78 44.0836L10.5328 43.2274L10.4041 43.2115L8.01603 43.9707C7.94089 43.7792 7.87696 43.5816 7.82678 43.3795L10.5126 42.3195L10.7985 40.8167L10.7636 40.6901L9.23507 38.8663C9.41787 38.7048 9.61343 38.5581 9.8202 38.4294L11.5295 40.7411L13.0296 40.6133L13.1391 40.5441L14.5126 38.4607C14.6968 38.5797 14.8715 38.711 15.0359 38.8548L13.471 41.0997L14.0468 42.5131L14.145 42.5991L16.4781 43.2851C16.427 43.5151 16.3587 43.7379 16.2744 43.9529L13.4898 43.2584L12.4088 44.3236L12.3668 44.448L12.5859 46.7854C12.4401 46.8001 12.2921 46.808 12.1417 46.808C11.9903 46.8079 11.8412 46.8 11.6929 46.7845ZM12.9721 46.7278L12.9929 44.3492L13.2058 44.0031L13.3495 43.9454L13.5843 43.851L16.1291 44.2857C15.5195 45.5359 14.3591 46.4602 12.9721 46.7278Z" fill="#A5A5A5"/>
<path d="M15.0924 42.2779C15.0924 43.9116 13.8002 45.2356 12.2066 45.2356C10.6124 45.2356 9.32031 43.9116 9.32031 42.2779C9.32031 40.645 10.6124 39.321 12.2066 39.321C13.8003 39.321 15.0924 40.645 15.0924 42.2779Z" fill="#A5A5A5"/>
<path d="M12.2098 43.876C11.3501 43.876 10.6501 43.1596 10.6501 42.2782C10.6501 41.3975 11.3499 40.6808 12.2098 40.6808C13.0696 40.6808 13.7688 41.3975 13.7688 42.2782C13.7688 43.1596 13.0694 43.876 12.2098 43.876Z" fill="#A5A5A5"/>
<path d="M12.635 42.2781C12.635 42.5189 12.4442 42.7142 12.2098 42.7142C11.9749 42.7142 11.7847 42.5189 11.7847 42.2781C11.7847 42.0382 11.9749 41.8424 12.2098 41.8424C12.4444 41.8424 12.635 42.0382 12.635 42.2781Z" fill="white"/>
<path d="M64.1907 42.7769C63.8877 42.947 63.5069 42.8336 63.3406 42.5232L58.0178 32.591C57.8513 32.2805 57.9619 31.8906 58.2653 31.7203C58.5679 31.55 58.9486 31.6634 59.115 31.9735L64.4378 41.906C64.6042 42.216 64.4936 42.6063 64.1907 42.7769Z" fill="#202021"/>
<path d="M3.65735 38.4683L29.5212 39.3488L28.619 41.1535C28.619 41.1535 28.3183 41.5496 28.9627 41.6377C29.6072 41.7258 31.025 41.6377 31.025 41.6377V42.3421L36.0517 42.6502V43.7507H47.0503C47.0503 43.7507 48.6399 43.7948 50.3585 41.1096C52.077 38.4246 53.8385 36.2675 55.3422 29.9727L59.3378 28.6081C59.3378 28.6081 59.5096 27.1814 58.0489 25.8919C58.0489 25.8919 57.6084 25.5763 56.7062 24.5198C55.804 23.4634 54.4506 18.6927 52.2273 16.9759L49.3273 18.6597C49.3273 18.6597 51.035 21.433 51.035 21.5649C51.035 21.6971 51.1961 22.1592 50.9062 22.3903C50.6162 22.6214 50.2296 23.5349 50.627 24.1951C51.0244 24.8553 51.4647 25.1085 51.6045 25.3396C51.7441 25.5707 54.3541 30.0167 48.8762 36.0254C48.8762 36.0254 47.7484 37.379 46.0728 37.4451C44.3972 37.5111 39.3383 37.412 39.3383 37.412C39.3383 37.412 35.9872 37.412 35.3428 36.4545C34.6984 35.4972 32.7972 32.3607 34.5694 29.4224C34.5694 29.4224 35.7617 28.2008 36.5994 27.7056C37.4372 27.2104 37.4104 26.187 37.3406 26.0879C37.3406 26.0879 37.3246 25.8843 36.5994 25.8917C35.5684 25.9023 15.1715 25.8917 15.1715 25.8917L15.0105 26.0238C15.0105 26.0238 14.3016 26.2859 13.6249 26.6161L12.5079 27.1554C12.5078 27.1552 4.77434 30.9409 3.65735 38.4683Z" fill="#79DEA8"/>
<path d="M56.5453 29.9279L59.7352 28.8934C59.7352 28.8934 66.953 28.3322 70.0785 33.7796C70.0785 33.7796 70.2718 34.1428 69.7241 34.2748C69.1763 34.4069 64.1497 34.836 63.4408 35.1002C62.7319 35.3643 60.4118 36.0246 58.3818 37.5432C58.3818 37.5432 56.3196 39.4251 53.4518 39.5242H53.1295C53.1295 39.5242 52.6462 39.392 52.7429 39.062C52.8396 38.7318 52.7429 38.0055 53.6774 36.3548C54.6118 34.7041 55.1546 32.4138 55.3852 31.4246C55.6721 30.1941 56.2783 30.0287 56.5453 29.9279Z" fill="#79DEA8"/>
<path d="M38.3699 25.7247H16.1363C16.1363 25.7247 14.944 25.6586 15.073 24.4702C15.2018 23.2816 15.4114 22.8772 15.5416 22.7498C15.7725 22.5243 37.0165 22.1921 37.0165 22.1921H37.5321C37.5321 22.1921 38.1443 22.5883 38.3699 23.5787C38.5954 24.5691 38.4907 25.6503 38.3699 25.7247Z" fill="#0B0C0C"/>
<path d="M27.0284 42.727L11.4005 43.9487C11.4005 43.9487 10.0471 44.0478 9.85383 42.8922C9.85383 42.8922 9.49944 41.5386 10.8849 41.1424L26.1584 38.9304C26.1584 38.9304 28.4784 38.8313 28.5107 41.0102C28.5107 41.0102 28.575 42.1988 27.0284 42.727Z" fill="#74BA91"/>
<path d="M26.5234 42.4175L12.2297 43.6334C12.2297 43.6334 10.9919 43.7331 10.8023 42.7687C10.8023 42.7687 10.4632 41.6403 11.7274 41.2917L25.6861 39.2512C25.6861 39.2512 27.8089 39.1396 27.8619 40.9625C27.8618 40.9625 27.9337 41.9563 26.5234 42.4175Z" fill="#79DEA8"/>
<path d="M6.2124 38.4012C6.2124 38.4012 19.4399 39.9024 29.9699 39.4791C29.9699 39.4791 33.8239 27.7021 21.2478 27.0093C21.2478 27.0095 7.63233 26.555 6.2124 38.4012Z" fill="#74BA91"/>
<path d="M15.5391 22.7548C15.5391 22.7548 14.4501 23.2278 27.3873 23.0205L37.7527 22.4948L37.7977 22.4323L37.6896 22.3212L37.6195 22.2584L37.5332 22.1921L36.8565 22.1947C36.8565 22.1947 15.841 22.3431 15.5391 22.7548Z" fill="#202021"/>
<path d="M6.2124 38.4012C6.2124 38.4012 19.2947 40.118 29.4126 39.1935C29.4126 39.1935 33.086 27.9685 21.0993 27.3081C21.0993 27.3083 7.56574 27.1102 6.2124 38.4012Z" fill="#79DEA8"/>
<path d="M50.9362 39.0619C50.9362 39.0619 49.4541 41.7252 45.3296 41.681C45.2222 41.6592 29.8627 41.2629 29.8627 41.2629C29.8627 41.2629 29.7073 41.2629 29.7179 41.1914C29.7179 41.1914 29.7662 41.1528 29.8737 41.1419C29.9811 41.1308 32.634 41.1804 32.634 41.1804L41.2695 41.1089C41.2695 41.1089 46.3285 41.1914 46.9246 41.0594C47.5207 40.9275 48.439 40.8944 49.8729 39.7553C51.3069 38.6163 50.689 39.1115 50.9361 38.9135C50.9362 38.9135 51.1113 38.8015 50.9362 39.0619Z" fill="#202021"/>
<path d="M51.4099 17.0082L49.4336 18.1087C49.4336 18.1087 47.7151 14.9502 48.1662 13.6242C48.6173 12.2982 49.771 10.9291 51.0148 10.2953C52.0927 9.7462 53.3862 9.0408 54.761 9.32693C54.761 9.32693 55.2551 11.1098 54.9328 14.7633C54.9328 14.7633 54.7824 14.9834 54.1166 14.9614C53.4507 14.9394 51.195 14.5872 51.238 15.9958L51.4099 17.0082Z" fill="#79DEA8"/>
<path d="M48.9825 4.71055C48.9825 4.71055 48.8987 2.9833 48.5202 2.78182C48.5202 2.78182 48.2245 2.54488 48.1999 2.80213L48.1779 3.03207C48.1779 3.03192 48.607 2.94498 48.9825 4.71055Z" fill="#A5A5A5"/>
<path d="M54.9324 14.7635L54.7605 9.3271L55.6573 9.48111C55.6573 9.48111 55.8667 9.48111 55.8667 10.0259C55.8667 10.5707 55.6789 12.2213 55.3137 14.6646C55.3137 14.6644 55.3353 14.7471 54.9324 14.7635Z" fill="#D9D9D9"/>
<path d="M52.2623 17.6023C52.2623 17.6023 56.6359 26.4485 53.9723 33.8438C53.9723 33.8438 52.9101 36.8812 51.3634 39.5664C51.3634 39.5664 54.5139 35.2157 55.6479 29.5299C55.6479 29.5299 56.4298 24.4696 52.4341 17.1623C52.4341 17.1623 52.2261 16.7935 52.1133 17.1071C52.1133 17.107 52.0812 17.1945 52.2623 17.6023Z" fill="#74BA91"/>
<path d="M50.0891 3.21494L48.3925 3.2381C48.491 2.55058 48.4348 1.6856 48.0165 0.659456L47.9223 0.321986L47.7639 0.100342L47.6094 0.120647C47.6094 0.120647 47.4413 1.84975 47.1682 4.97908L47.3059 5.27722L47.5427 5.13037C47.5427 5.13037 48.0623 4.71611 48.3413 3.52438C48.8718 3.50836 49.9268 3.45531 50.1574 3.55555C50.3465 3.63778 50.3782 4.06476 50.3782 4.06476L49.9816 12.1556L50.1885 12.1284C50.1885 12.1284 50.6689 4.72655 50.6873 4.02487C50.7057 3.32333 50.0891 3.21494 50.0891 3.21494Z" fill="#D9D9D9"/>
<path d="M48.1671 12.7554L49.3353 12.4733C49.3353 12.4733 50.1088 12.4669 50.2616 13.2842C50.2616 13.2842 50.4212 14.2323 49.5972 14.2749L48.8221 14.479C48.8221 14.479 48.04 13.7847 48.0805 13.6546C48.121 13.5245 48.1671 12.7554 48.1671 12.7554Z" fill="#A5A5A5"/>
<path d="M47.6603 13.0383L45.9236 13.4801C45.9236 13.4801 46.1789 14.9465 46.254 14.9163C46.3291 14.8861 48.2014 14.4719 48.2014 14.4719C48.2014 14.4719 48.5215 14.5871 48.7525 14.5192C48.9835 14.4514 49.5882 13.9504 49.1687 13.1193C49.1687 13.1193 48.8368 12.5859 48.1719 12.7343C48.1719 12.7343 47.7662 12.7842 47.6603 13.0383Z" fill="#0B0C0C"/>
<path d="M46.7198 14.0135C46.814 14.4227 46.5666 14.8325 46.1671 14.929C45.7677 15.0256 45.3677 14.772 45.2735 14.3628C45.1928 14.0117 45.3634 13.6601 45.6656 13.5064C45.7157 13.481 45.7694 13.4609 45.8261 13.4472C46.2255 13.3508 46.6256 13.6044 46.7198 14.0135Z" fill="#202021"/>
<path d="M52.5157 23.5015C52.5157 23.9453 52.1647 24.3049 51.7317 24.3049C51.2987 24.3049 50.9476 23.9453 50.9476 23.5015C50.9476 23.0578 51.2987 22.6982 51.7317 22.6982C52.1647 22.6982 52.5157 23.0578 52.5157 23.5015Z" fill="#202021"/>
<path d="M57.8753 29.4955C57.8753 29.4955 56.6937 30.5437 53.822 36.0839C54.0299 35.8703 54.7742 33.8158 55.0177 32.8768C55.2613 31.9377 55.3455 30.3847 56.2255 30.0649L57.8753 29.4955Z" fill="#74BA91"/>
<path d="M54.8095 25.43C54.8095 25.43 55.1092 27.0953 55.13 28.7681C55.13 28.7681 55.1102 29.6933 55.3685 29.7086C55.494 29.5732 55.9914 29.6922 55.9007 27.801C55.9007 27.801 55.951 25.532 55.4988 24.6413C55.4988 24.6413 55.0907 23.7934 54.7834 24.396C54.7834 24.3959 54.576 24.6876 54.8095 25.43Z" fill="#D9D9D9"/>
<path d="M55.3756 24.4349C55.3756 24.4349 54.9975 24.1832 54.9438 24.7006C54.9438 24.7006 55.1673 27.9899 55.1254 28.5628C55.0835 29.1356 54.9151 25.8487 54.7361 25.148C54.7151 25.0251 54.5613 24.4401 54.9136 24.2236C54.9137 24.2236 55.0448 24.0262 55.3756 24.4349Z" fill="#A5A5A5"/>
<path d="M4.64351 28.2636C4.64351 28.2636 4.56837 30.0265 5.05159 30.4337C5.05159 30.4337 5.08565 30.4722 5.63168 30.4778C5.64247 30.4502 5.33631 29.1186 5.42771 28.1282C5.51897 27.1378 5.47789 26.8737 5.77228 26.0483C5.77228 26.0483 5.33294 25.9988 5.20579 26.0427C5.07865 26.0868 4.97659 26.1362 4.90678 26.3123C4.83683 26.4883 4.6487 27.2711 4.64351 28.2636Z" fill="#D9D9D9"/>
<path d="M20.8235 25.8937C20.8235 25.8937 20.4706 27.1123 19.9297 27.0255C19.3573 26.9338 18.8418 26.673 18.9546 26.4627C19.0674 26.2523 17.6776 25.8305 17.6776 25.8305L20.8235 25.8937Z" fill="#202021"/>
<path d="M20.2454 26.6532C20.2126 26.8385 20.0392 26.9616 19.8583 26.928L7.89456 24.707C7.71358 24.6734 7.59344 24.4959 7.62625 24.3104C7.65891 24.1251 7.83232 24.0018 8.0133 24.0356L19.9771 26.2566C20.1581 26.2902 20.2782 26.4678 20.2454 26.6532Z" fill="#D9D9D9"/>
<path d="M13.3718 24.7099C13.3491 24.8841 13.1772 24.9596 13.0519 24.9423L4.82024 23.8575C4.69492 23.8404 4.61179 23.6851 4.63464 23.5109C4.65735 23.3366 4.77749 23.2093 4.90267 23.2265L13.1859 24.3632C13.3115 24.3805 13.3946 24.5358 13.3718 24.7099Z" fill="#D9D9D9"/>
<path d="M4.63497 23.5114C4.63497 23.5114 4.60175 23.2592 4.87034 23.083C5.13894 22.907 5.8693 22.5899 5.8693 22.5899L6.16999 23.0507C6.16999 23.0507 5.48814 23.3072 5.55318 23.3162C5.61809 23.3251 5.45001 23.5216 5.40192 23.5114C5.3537 23.5011 4.63497 23.5114 4.63497 23.5114Z" fill="#D9D9D9"/>
<path d="M6.17107 23.0512C6.17107 23.0512 6.10924 23.0492 6.45564 23.0512C6.80204 23.0532 8.73532 23.3586 8.73532 23.3586L12.9242 24.1114H12.9564L12.8195 24.2665C12.8195 24.2665 12.7759 24.3077 12.6582 24.2915C12.5406 24.2754 12.5374 24.3978 12.6503 24.4269C12.7631 24.4563 13.249 24.9001 13.249 24.9001L13.7124 24.5157C13.7124 24.5157 14.1808 24.0434 13.48 23.7876C12.7792 23.5318 6.47162 22.5903 6.47162 22.5903C6.47162 22.5903 6.05065 22.5101 5.87023 22.5903C5.68981 22.6704 5.72248 22.9788 5.76271 22.9788C5.80294 22.9788 5.98027 23.0576 6.02051 23.0512C6.06088 23.0449 6.17107 23.0512 6.17107 23.0512Z" fill="#D9D9D9"/>
<path d="M14.2459 25.1932L14.5051 23.3702L14.6555 22.5901C14.6555 22.5901 14.5252 24.0625 14.4507 24.7229L14.8919 24.8999L15.4075 21.8176C15.4075 21.8176 15.4075 21.4766 15.1711 21.4105C14.9349 21.3445 14.7415 21.3225 14.7415 21.3225H14.5831C14.5831 21.3225 14.2821 21.1373 13.8244 24.0305L13.6888 25.1931H14.2459V25.1932Z" fill="#D9D9D9"/>
<path d="M11.2817 23.5118L10.5942 24.2386L9.90686 24.0853L10.4868 23.5118H11.2817Z" fill="#D9D9D9"/>
<path d="M8.91865 23.0514L8.26833 23.6894H7.47937L8.10249 23.0514H8.91865Z" fill="#D9D9D9"/>
<path fill-rule="evenodd" clip-rule="evenodd" d="M63.9076 28.3958C63.9076 28.3958 63.5384 28.7453 63.9076 28.8773C64.2769 29.0093 65.8719 29.3889 66.887 29.9832C66.887 29.9832 64.6475 29.0918 63.2781 28.8112C63.2781 28.8112 63.0968 28.7782 63.1331 28.6874C63.1693 28.5965 63.5263 28.4056 63.9076 28.3958Z" fill="#A5A5A5"/>
<path d="M54.8728 12.8815L54.7605 9.3271L55.5711 9.46638L55.6573 9.48111C55.6573 9.48111 55.7817 9.4977 55.818 9.65742C55.818 9.65742 55.2545 9.6517 55.1739 9.69574C55.0933 9.73979 54.9699 9.80027 54.9592 10.1745C54.9484 10.5486 54.8728 12.8815 54.8728 12.8815Z" fill="#A5A5A5"/>
<path d="M5.8009 26.0499C5.8009 26.0499 5.45086 27.6825 5.40278 28.6289C5.40278 28.6289 5.526 26.6921 5.40278 26.615C5.27955 26.5379 4.84582 26.521 4.83167 26.5828C4.83167 26.5828 4.86054 26.0971 5.26147 26.0246L5.8009 26.0499Z" fill="#A5A5A5"/>
<path d="M48.3941 2.02827C48.3941 2.02827 48.3103 0.301022 47.9318 0.0995404C47.9318 0.0995404 47.6362 -0.137404 47.6115 0.119846L47.5895 0.349783C47.5893 0.349783 48.0184 0.262699 48.3941 2.02827Z" fill="#A5A5A5"/>
<path d="M14.4497 24.7231C14.4497 24.7231 15.0139 24.2924 15.2064 23.0136L14.9392 24.9456L14.574 24.8608L14.4497 24.7231Z" fill="#A5A5A5"/>
<path d="M0 17.7005V17.8959V18.3455V21.238C0 21.238 0.124624 23.1163 1.88646 23.3715C3.64844 23.6268 10.4292 24.4311 10.4292 24.4311C10.4292 24.4311 12.6361 24.6915 13.2055 23.7306C13.7022 22.8926 14.6641 20.0034 14.7182 17.8959C14.7419 16.9755 13.9708 14.5094 11.746 13.6158C11.746 13.6158 8.5605 12.0476 5.42808 13.087C5.42808 13.087 2.63392 13.8894 0.88975 15.7858C0.88989 15.7858 0.0890171 16.6793 0 17.7005Z" fill="#202021"/>
<path d="M1.11267 16.1447C1.11267 16.1447 4.61167 12.1417 9.47761 13.4669C9.66252 13.5172 9.84952 13.5752 10.0384 13.6416C10.0384 13.6416 6.84832 15.4689 5.43049 15.6088C4.01267 15.7486 1.11267 16.1447 1.11267 16.1447Z" fill="#B3494A"/>
<path d="M9.42405 13.4537C9.42405 13.4537 6.27173 15.0474 5.44996 15.2454C4.6282 15.4435 1.1784 16.0682 1.1784 16.0682L1.10803 16.1449C1.10803 16.1449 5.27165 15.8224 6.18243 15.439C7.09335 15.0557 8.31786 14.6677 10.0739 13.636L9.42405 13.4537Z" fill="#A6373D"/>
<path d="M14.7184 17.8951C14.7184 17.8951 10.7046 19.5141 0 17.6996V17.7422C0 17.7422 10.5326 19.6715 14.7149 17.9985L14.7184 17.8951Z" fill="#25292A"/>
<path d="M30.1256 33.1286H6.98987V33.9631H30.1256V33.1286Z" fill="white"/>
<path d="M30.1259 33.963H6.9903H6.1698V34.8201H30.325V33.963H30.1259Z" fill="#F7B328"/>
<path d="M10.1918 32.5165L8.64512 34.4148C8.64512 34.4148 8.16176 35.108 7.88784 34.91C7.88784 34.91 7.51944 34.6023 7.95443 33.6519C7.95443 33.6519 9.1767 31.9553 9.70842 31.559C10.2401 31.1628 10.6913 31.0142 10.804 31.394C10.804 31.394 10.9743 31.5559 10.1918 32.5165Z" fill="#D9D9D9"/>
<path d="M9.88591 31.4268C9.88591 31.4268 10.5787 31.2617 10.5465 31.567C10.5465 31.567 10.6308 31.6584 10.0147 32.574L8.96448 34.0227C8.96448 34.0227 10.5773 32.1312 10.7157 31.8642C10.8539 31.5972 10.9641 31.4339 10.719 31.2446C10.719 31.2447 10.6109 30.9729 9.88591 31.4268Z" fill="#A5A5A5"/>
<path d="M19.7614 38.0306C22.0325 38.0306 23.8737 36.1343 23.8737 33.7951C23.8737 31.4558 22.0325 29.5595 19.7614 29.5595C17.4902 29.5595 15.649 31.4558 15.649 33.7951C15.649 36.1343 17.4902 38.0306 19.7614 38.0306Z" fill="#29333D"/>
<path d="M16.9139 33.9167L16.3849 32.9209H16.9912L17.1887 33.2908L17.3829 32.9209H17.9892L17.4601 33.9167V34.6693H16.9151L16.9139 33.9167Z" fill="white"/>
<path d="M20.5647 33.515C20.5307 33.486 20.4921 33.4638 20.45 33.4511C20.4058 33.4371 20.3603 33.4289 20.3149 33.4289C20.2684 33.4278 20.2218 33.4382 20.1798 33.4568C20.1401 33.4742 20.1037 33.4998 20.0731 33.5324C20.0424 33.5662 20.0186 33.6056 20.0027 33.6488C19.9858 33.6953 19.9766 33.7454 19.9766 33.7954C19.9766 33.8454 19.9858 33.8955 20.005 33.942C20.0232 33.9862 20.0493 34.0258 20.0822 34.0584C20.1151 34.091 20.1537 34.1166 20.1958 34.134C20.2401 34.1526 20.2877 34.1619 20.3354 34.1619C20.391 34.163 20.4444 34.149 20.4943 34.1236C20.542 34.098 20.5841 34.0631 20.617 34.02H20.4638V33.6535H21.1211V34.2352C21.0826 34.3062 21.0348 34.3714 20.9804 34.4307C20.9258 34.4889 20.8646 34.5401 20.7976 34.582C20.7294 34.6239 20.6557 34.6565 20.5785 34.6785C20.1051 34.8181 19.6112 34.539 19.4749 34.0551C19.4511 33.9713 19.4397 33.8829 19.4397 33.7957C19.4386 33.6736 19.4613 33.5526 19.5067 33.4398C19.5488 33.3315 19.6112 33.2316 19.6895 33.1478C19.7679 33.064 19.8621 32.9978 19.9654 32.9512C20.0745 32.9023 20.1914 32.8778 20.3094 32.8791C20.3934 32.8779 20.4764 32.8872 20.5581 32.9081C20.6194 32.9244 20.6785 32.9453 20.7341 32.9733C20.7851 32.9978 20.8318 33.0279 20.8748 33.0653L20.5647 33.515Z" fill="white"/>
<path d="M21.3496 33.7953C21.3485 33.6732 21.3735 33.5511 21.42 33.4394C21.5109 33.2184 21.6823 33.0439 21.8969 32.9508C22.1194 32.8543 22.3703 32.8543 22.593 32.9508C22.8087 33.0439 22.979 33.2195 23.0699 33.4394C23.1641 33.6674 23.1641 33.9245 23.0699 34.1525C22.979 34.3736 22.8076 34.5481 22.593 34.6412C22.3705 34.7377 22.1196 34.7377 21.8969 34.6412C21.6812 34.5481 21.5109 34.3725 21.42 34.1525C21.3724 34.0396 21.3485 33.9175 21.3496 33.7953ZM21.8867 33.7953C21.8867 33.8442 21.8958 33.893 21.915 33.9385C21.9513 34.0269 22.0195 34.0966 22.1058 34.134C22.1955 34.1723 22.2955 34.1723 22.3851 34.134C22.4714 34.0968 22.5394 34.027 22.5759 33.9385C22.6133 33.8465 22.6133 33.7442 22.5759 33.6523C22.5395 33.564 22.4714 33.4942 22.3851 33.4569C22.2953 33.4185 22.1954 33.4185 22.1058 33.4569C22.0195 33.494 21.9515 33.5638 21.915 33.6523C21.8958 33.6975 21.8867 33.7464 21.8867 33.7953Z" fill="white"/>
<path d="M18.2034 32.9109H19.2093V33.3704H18.7484V33.5647H19.2015V33.9998H18.7484V34.2023H19.2276V34.6618H18.2035V32.9109H18.2034Z" fill="white"/>
<path d="M18.1968 35.7336H18.1616V35.6871H18.1605C18.1583 35.6929 18.1549 35.6987 18.1492 35.7045C18.1447 35.7104 18.1378 35.7173 18.1298 35.722C18.1218 35.7278 18.1128 35.7313 18.1026 35.7348C18.0924 35.7383 18.0799 35.7396 18.0663 35.7396C18.0516 35.7396 18.0391 35.7384 18.0278 35.7348C18.0164 35.7314 18.0073 35.7278 17.9994 35.7233C17.9915 35.7185 17.9847 35.714 17.979 35.7081C17.9732 35.7022 17.9687 35.6977 17.9654 35.6941C17.9551 35.6814 17.9484 35.6662 17.9449 35.6488C17.9416 35.6313 17.9404 35.615 17.9404 35.5987V35.4335H17.9779V35.5976C17.9779 35.6162 17.9801 35.6325 17.9836 35.6453C17.987 35.658 17.9927 35.6686 17.9983 35.6768C18.0086 35.6884 18.0199 35.6965 18.0324 35.7001C18.0449 35.7037 18.0562 35.706 18.0664 35.706C18.0767 35.706 18.0869 35.7048 18.0983 35.7012C18.1096 35.6978 18.1187 35.6919 18.129 35.6826C18.1335 35.6779 18.137 35.6734 18.1414 35.6686C18.1448 35.6639 18.1483 35.6582 18.1506 35.6512C18.1528 35.6442 18.155 35.636 18.1574 35.6267C18.1585 35.6174 18.1597 35.6059 18.1597 35.593V35.4348H18.1971V35.7336H18.1968Z" fill="#F9B13D"/>
<path d="M18.2689 35.4363H18.3063V35.4793H18.3074C18.3119 35.4689 18.3165 35.4607 18.3232 35.4537C18.3289 35.4479 18.3356 35.4421 18.3436 35.4386C18.3505 35.4351 18.3583 35.4327 18.3663 35.4304C18.3742 35.4293 18.3821 35.4281 18.39 35.4281V35.4689C18.3765 35.47 18.3651 35.4736 18.3538 35.4782C18.3425 35.4827 18.3345 35.4897 18.3267 35.499C18.3198 35.5072 18.3154 35.5165 18.312 35.5269C18.3086 35.5374 18.3063 35.5491 18.3063 35.5607V35.7351H18.2689V35.4363Z" fill="#F9B13D"/>
<path d="M18.4311 35.3307H18.4685V35.4889H18.4696C18.4776 35.4773 18.4866 35.4667 18.4968 35.4585C18.507 35.4504 18.5173 35.4445 18.5275 35.44C18.5377 35.4352 18.548 35.4318 18.5571 35.4307C18.5673 35.4295 18.5753 35.4284 18.5832 35.4284C18.607 35.4284 18.6286 35.4331 18.6479 35.4411C18.6673 35.4504 18.6843 35.462 18.6967 35.476C18.7103 35.4912 18.7206 35.5075 18.7286 35.526C18.7365 35.5446 18.7399 35.5644 18.7399 35.5842C18.7399 35.6051 18.7365 35.6261 18.7286 35.6447C18.7206 35.6633 18.7103 35.6808 18.6967 35.6948C18.6831 35.7088 18.666 35.7204 18.6468 35.7285C18.6275 35.7367 18.6059 35.7413 18.5832 35.7413C18.5752 35.7413 18.5673 35.7401 18.5571 35.739C18.5469 35.7378 18.5377 35.7342 18.5264 35.7297C18.5162 35.725 18.5059 35.7192 18.4957 35.7111C18.4855 35.7029 18.4763 35.6936 18.4685 35.6808H18.4674V35.7331H18.4299V35.3306H18.4311V35.3307ZM18.7025 35.5867C18.7025 35.5681 18.6991 35.5506 18.6934 35.5355C18.6876 35.5203 18.6786 35.5076 18.6673 35.4972C18.6559 35.4867 18.6435 35.4786 18.6287 35.4727C18.614 35.4668 18.5992 35.4634 18.5833 35.4634C18.5663 35.4634 18.5515 35.4668 18.5368 35.4738C18.522 35.4809 18.5107 35.489 18.4993 35.5006C18.4891 35.5122 18.4811 35.525 18.4744 35.5402C18.4688 35.5554 18.4653 35.5704 18.4653 35.5867C18.4653 35.6041 18.4686 35.6204 18.4744 35.6356C18.4801 35.6507 18.4891 35.6635 18.4993 35.6739C18.5096 35.6843 18.522 35.6936 18.5368 35.6995C18.5515 35.7054 18.5663 35.7088 18.5811 35.7088C18.5993 35.7088 18.6151 35.7054 18.6299 35.6995C18.6446 35.6936 18.6571 35.6843 18.6673 35.6739C18.6775 35.6635 18.6855 35.6506 18.6911 35.6356C18.7002 35.6191 18.7025 35.6041 18.7025 35.5867Z" fill="#F9B13D"/>
<path d="M19.0905 35.736H19.053V35.6836H19.0519C19.0439 35.6964 19.035 35.7058 19.0247 35.7138C19.0145 35.722 19.0043 35.7278 18.994 35.7324C18.9838 35.7371 18.9736 35.7394 18.9633 35.7417C18.9531 35.744 18.9451 35.744 18.9372 35.744C18.9145 35.744 18.8929 35.7393 18.8749 35.7313C18.8555 35.7231 18.8397 35.7115 18.8249 35.6975C18.8113 35.6835 18.8 35.666 18.792 35.6474C18.784 35.6289 18.7806 35.6078 18.7806 35.5869C18.7806 35.5672 18.784 35.5473 18.792 35.5287C18.8 35.5101 18.8102 35.4938 18.8238 35.4787C18.8374 35.4635 18.8534 35.4519 18.8726 35.4438C18.892 35.4345 18.9135 35.4309 18.9374 35.4309C18.9454 35.4309 18.9543 35.4321 18.9646 35.4332C18.9748 35.4343 18.985 35.4379 18.9953 35.4425C19.0055 35.4472 19.0158 35.4529 19.026 35.4611C19.0362 35.4692 19.0442 35.4785 19.0521 35.4913H19.0532V35.4389H19.0906V35.736H19.0905ZM18.8179 35.5871C18.8179 35.6034 18.8213 35.6197 18.827 35.6349C18.8327 35.65 18.8406 35.6628 18.8509 35.6732C18.8611 35.6836 18.8736 35.6929 18.8883 35.6988C18.903 35.7047 18.919 35.7081 18.9371 35.7081C18.9529 35.7081 18.9678 35.7047 18.9814 35.6988C18.9961 35.6929 19.0075 35.6836 19.0188 35.6732C19.0291 35.6628 19.0382 35.6499 19.0438 35.6349C19.0495 35.6197 19.0529 35.6034 19.0529 35.5859C19.0529 35.5696 19.0495 35.5533 19.0438 35.5395C19.0382 35.5243 19.0302 35.5116 19.02 35.4998C19.0097 35.4881 18.9972 35.4801 18.9825 35.4731C18.9678 35.4661 18.9529 35.4627 18.936 35.4627C18.9201 35.4627 18.9053 35.4661 18.8906 35.472C18.8758 35.4778 18.8634 35.486 18.852 35.4964C18.8406 35.5069 18.8327 35.5197 18.8259 35.5347C18.8191 35.5498 18.8179 35.5685 18.8179 35.5871Z" fill="#F9B13D"/>
<path d="M19.1559 35.4364H19.1934V35.4747H19.1945C19.1979 35.47 19.2014 35.4655 19.2058 35.4596C19.2103 35.4537 19.2172 35.4492 19.2241 35.4444C19.2321 35.4397 19.2399 35.4363 19.2501 35.4328C19.2604 35.4294 19.2706 35.4281 19.2831 35.4281C19.3013 35.4281 19.3183 35.4304 19.333 35.4363C19.3477 35.4421 19.3626 35.4514 19.3762 35.4653C19.3875 35.4757 19.3955 35.4909 19.4022 35.5072C19.4091 35.5247 19.4125 35.5455 19.4125 35.57V35.734H19.3751V35.57C19.3751 35.5502 19.3728 35.5339 19.3671 35.5199C19.3615 35.5059 19.3557 35.4955 19.3466 35.4873C19.3364 35.4769 19.325 35.4699 19.3137 35.4665C19.3012 35.463 19.2921 35.4617 19.2829 35.4617C19.275 35.4617 19.2647 35.464 19.2522 35.4665C19.2398 35.4699 19.2295 35.4769 19.2193 35.4873C19.2113 35.4955 19.2046 35.5059 19.2 35.5188C19.1942 35.5315 19.192 35.5478 19.192 35.5666V35.734H19.1545V35.4361H19.1559V35.4364Z" fill="#F9B13D"/>
<path d="M19.6694 35.4713C19.6774 35.4573 19.6887 35.4469 19.7023 35.4399C19.7159 35.4329 19.7319 35.4294 19.7489 35.4294C19.7704 35.4294 19.7898 35.4342 19.8067 35.4446C19.8237 35.455 19.8374 35.469 19.8477 35.4876C19.8704 35.4493 19.9033 35.4306 19.9454 35.4306C19.9624 35.4306 19.9783 35.434 19.9931 35.4399C20.0078 35.4457 20.0202 35.455 20.0305 35.4655C20.0407 35.4771 20.0487 35.4899 20.0543 35.5062C20.0599 35.5225 20.0634 35.54 20.0634 35.5597V35.7377H20.026V35.5621C20.026 35.5295 20.0191 35.5051 20.0044 35.4888C19.9908 35.4713 19.9703 35.4632 19.9465 35.4632C19.9216 35.4632 19.9022 35.4713 19.8886 35.4888C19.875 35.5062 19.867 35.5307 19.867 35.5621V35.7354H19.8296V35.5621C19.8296 35.5295 19.8227 35.5051 19.808 35.4888C19.7944 35.4713 19.7739 35.4632 19.7501 35.4632C19.7263 35.4632 19.7058 35.4713 19.6922 35.4888C19.6786 35.5062 19.6706 35.5307 19.6706 35.5621V35.7354H19.6321V35.4364H19.6695V35.4713H19.6694Z" fill="#F9B13D"/>
<path d="M20.1161 35.5876C20.1161 35.5643 20.1206 35.5422 20.1297 35.5224C20.1388 35.5026 20.1502 35.4863 20.1638 35.4723C20.1774 35.4583 20.1945 35.4479 20.2125 35.4397C20.2308 35.4316 20.25 35.4281 20.2693 35.4281C20.2909 35.4281 20.3114 35.4328 20.3295 35.4409C20.3477 35.449 20.3646 35.4606 20.3782 35.4757C20.3918 35.4909 20.4032 35.5072 20.4101 35.5258C20.418 35.5444 20.4214 35.5641 20.4214 35.5851C20.4214 35.6062 20.418 35.6248 20.4101 35.6445C20.4021 35.6631 20.3918 35.6805 20.3782 35.6945C20.3646 35.7085 20.3487 35.7201 20.3295 35.7294C20.3112 35.7387 20.2909 35.7423 20.2682 35.7423C20.2466 35.7423 20.2273 35.7376 20.2081 35.7294C20.1898 35.7213 20.174 35.7097 20.1593 35.6957C20.1457 35.6817 20.1343 35.6654 20.1274 35.6456C20.1206 35.627 20.1161 35.6073 20.1161 35.5876ZM20.1535 35.5876C20.1535 35.605 20.1569 35.6213 20.1626 35.6365C20.1695 35.6516 20.1774 35.6644 20.1887 35.6748C20.1989 35.6852 20.2114 35.6934 20.225 35.7004C20.2386 35.7063 20.2533 35.7097 20.2682 35.7097C20.283 35.7097 20.2965 35.7074 20.3102 35.7015C20.324 35.6957 20.3363 35.6875 20.3466 35.6771C20.3579 35.6666 20.3659 35.6538 20.3726 35.6388C20.3795 35.6236 20.3829 35.6062 20.3829 35.5864C20.3829 35.5667 20.3795 35.5492 20.3715 35.5341C20.3646 35.5189 20.3545 35.5062 20.3443 35.4969C20.333 35.4865 20.3205 35.4795 20.3069 35.4736C20.2933 35.4677 20.2797 35.4655 20.2672 35.4655C20.2536 35.4655 20.2411 35.4677 20.2275 35.4736C20.2139 35.4795 20.2015 35.4876 20.1901 35.4981C20.1788 35.5085 20.1696 35.5214 20.1629 35.5377C20.1562 35.554 20.1535 35.5678 20.1535 35.5876Z" fill="#F9B13D"/>
<path d="M20.482 35.3307H20.5194V35.4889H20.5205C20.5285 35.4773 20.5375 35.4667 20.5477 35.4585C20.5579 35.4504 20.5682 35.4445 20.5784 35.44C20.5886 35.4352 20.5989 35.4318 20.608 35.4307C20.6182 35.4295 20.6262 35.4284 20.6341 35.4284C20.6579 35.4284 20.6795 35.4331 20.6988 35.4411C20.7182 35.4504 20.7351 35.462 20.7476 35.476C20.7612 35.4912 20.7714 35.5075 20.7794 35.526C20.7874 35.5446 20.7908 35.5644 20.7908 35.5842C20.7908 35.6051 20.7874 35.6261 20.7794 35.6447C20.7714 35.6633 20.7612 35.6808 20.7476 35.6948C20.734 35.7088 20.7169 35.7204 20.6977 35.7285C20.6784 35.7367 20.6568 35.7413 20.6341 35.7413C20.6261 35.7413 20.6182 35.7401 20.608 35.739C20.5978 35.7378 20.5886 35.7342 20.5773 35.7297C20.567 35.725 20.5568 35.7192 20.5466 35.7111C20.5363 35.7029 20.5272 35.6936 20.5194 35.6808H20.5183V35.7331H20.4808V35.3306H20.482V35.3307ZM20.7545 35.5867C20.7545 35.5681 20.7511 35.5506 20.7454 35.5355C20.7385 35.5203 20.7306 35.5076 20.7193 35.4972C20.7079 35.4867 20.6955 35.4786 20.6807 35.4727C20.666 35.4668 20.6512 35.4634 20.6353 35.4634C20.6184 35.4634 20.6035 35.4668 20.5888 35.4738C20.5741 35.4809 20.5627 35.489 20.5513 35.5006C20.54 35.5122 20.5331 35.525 20.5264 35.5402C20.5208 35.5554 20.5173 35.5704 20.5173 35.5867C20.5173 35.6041 20.5206 35.6204 20.5264 35.6356C20.5321 35.6507 20.5411 35.6635 20.5513 35.6739C20.5616 35.6843 20.5741 35.6936 20.5888 35.6995C20.6035 35.7054 20.6184 35.7088 20.6331 35.7088C20.6513 35.7088 20.6671 35.7054 20.6819 35.6995C20.6966 35.6936 20.7091 35.6843 20.7193 35.6739C20.7295 35.6635 20.7375 35.6506 20.7431 35.6356C20.7511 35.6191 20.7545 35.6041 20.7545 35.5867Z" fill="#F9B13D"/>
<path d="M20.8427 35.3306H20.88V35.3992H20.8427V35.3306ZM20.8427 35.4364H20.88V35.7354H20.8427V35.4364Z" fill="#F9B13D"/>
<path d="M20.9508 35.3306H20.9881V35.7354H20.9508V35.3306Z" fill="#F9B13D"/>
<path d="M21.0581 35.3306H21.0954V35.3992H21.0581V35.3306ZM21.0581 35.4364H21.0954V35.7354H21.0581V35.4364Z" fill="#F9B13D"/>
<path d="M21.1981 35.4713H21.137V35.4364H21.1981V35.3306H21.2354V35.4364H21.3056V35.4713H21.2354V35.7354H21.1981V35.4713Z" fill="#F9B13D"/>
<path d="M21.4317 35.7265L21.3181 35.4368H21.3578L21.4509 35.6753L21.5497 35.4368H21.5894L21.4202 35.8405H21.3816L21.4317 35.7265Z" fill="#F9B13D"/>
</svg>
