<svg width="40" height="40" viewBox="0 0 40 40" fill="none" xmlns="http://www.w3.org/2000/svg">
<path d="M20 40C31.0457 40 40 31.0457 40 20C40 8.9543 31.0457 0 20 0C8.9543 0 0 8.9543 0 20C0 31.0457 8.9543 40 20 40Z" fill="#29323C"/>
<path d="M6.10747 20.5563L3.54773 15.8542H6.48099L7.43677 17.601L8.37607 15.8542H11.3093L8.7496 20.5563V24.1102H6.11296L6.10747 20.5563Z" fill="white"/>
<path d="M23.5256 18.6611C23.3608 18.5238 23.1741 18.4194 22.9708 18.359C22.7566 18.2931 22.5369 18.2547 22.3171 18.2547C22.0919 18.2492 21.8667 18.2986 21.6635 18.3865C21.4712 18.4689 21.2954 18.5897 21.1471 18.7435C20.9988 18.9028 20.8835 19.0896 20.8066 19.2928C20.7242 19.5125 20.6802 19.7487 20.6802 19.9849C20.6802 20.2211 20.7242 20.4573 20.8176 20.6771C20.9054 20.8858 21.0318 21.0726 21.1911 21.2264C21.3504 21.3802 21.5371 21.501 21.7404 21.5834C21.9546 21.6713 22.1853 21.7152 22.416 21.7152C22.6852 21.7207 22.9433 21.6548 23.185 21.534C23.4157 21.4131 23.619 21.2483 23.7783 21.0451H23.0367V19.3148H26.2172V22.0613C26.0304 22.3964 25.7997 22.704 25.536 22.9841C25.2724 23.2588 24.9758 23.5005 24.6517 23.6982C24.3221 23.896 23.965 24.0498 23.5915 24.1541C21.3009 24.8133 18.9115 23.495 18.2523 21.2099C18.137 20.8144 18.082 20.3969 18.082 19.9849C18.0766 19.4082 18.1864 18.8369 18.4061 18.3041C18.6094 17.7932 18.9115 17.3208 19.2905 16.9253C19.6695 16.5298 20.1254 16.2167 20.6253 15.997C21.1526 15.7663 21.7184 15.651 22.2897 15.6565C22.6962 15.651 23.0972 15.6949 23.4926 15.7938C23.7893 15.8707 24.0749 15.9696 24.3441 16.1014C24.5912 16.2167 24.8165 16.3596 25.0252 16.5353L23.5256 18.6611Z" fill="white"/>
<path d="M27.1264 19.9846C27.1209 19.4079 27.2418 18.8311 27.467 18.3038C27.9064 17.2601 28.7359 16.4362 29.774 15.9967C30.8507 15.5408 32.0646 15.5408 33.1412 15.9967C34.1849 16.4362 35.0089 17.2656 35.4483 18.3038C35.9042 19.3804 35.9042 20.5944 35.4483 21.671C35.0089 22.7147 34.1794 23.5386 33.1412 23.978C32.0646 24.434 30.8507 24.434 29.774 23.978C28.7304 23.5386 27.9064 22.7092 27.467 21.671C27.2363 21.1382 27.1209 20.5614 27.1264 19.9846ZM29.7246 19.9846C29.7246 20.2153 29.7685 20.4461 29.8619 20.6603C30.0377 21.0777 30.3673 21.4073 30.7847 21.5831C31.2187 21.7644 31.7021 21.7644 32.136 21.5831C32.5535 21.4073 32.8831 21.0777 33.0588 20.6603C33.2401 20.2263 33.2401 19.7429 33.0588 19.309C32.8831 18.8915 32.5535 18.562 32.136 18.3862C31.7021 18.2049 31.2187 18.2049 30.7847 18.3862C30.3673 18.562 30.0377 18.8915 29.8619 19.309C29.7685 19.5232 29.7246 19.7539 29.7246 19.9846Z" fill="white"/>
<path d="M12.2181 15.8049H17.0849V17.9747H14.8547V18.892H17.0464V20.9464H14.8547V21.9022H17.1728V24.0719H12.2181V15.8049Z" fill="white"/>
</svg>
